<?xml version="1.0" encoding="UTF-8" standalone="no"?>
<!-- Created with Inkscape (http://www.inkscape.org/) -->

<svg
   xmlns:dc="http://purl.org/dc/elements/1.1/"
   xmlns:cc="http://creativecommons.org/ns#"
   xmlns:rdf="http://www.w3.org/1999/02/22-rdf-syntax-ns#"
   xmlns:svg="http://www.w3.org/2000/svg"
   xmlns="http://www.w3.org/2000/svg"
   xmlns:sodipodi="http://sodipodi.sourceforge.net/DTD/sodipodi-0.dtd"
   xmlns:inkscape="http://www.inkscape.org/namespaces/inkscape"
   width="24"
   height="24"
   viewBox="0 0 6.3499999 6.3500002"
   version="1.1"
   id="svg8"
   inkscape:version="0.92.2 5c3e80d, 2017-08-06"
   sodipodi:docname="die_roll.svg">
  <defs
     id="defs2" />
  <sodipodi:namedview
     id="base"
     pagecolor="#ffffff"
     bordercolor="#666666"
     borderopacity="1.0"
     inkscape:pageopacity="0.0"
     inkscape:pageshadow="2"
     inkscape:zoom="28.12"
     inkscape:cx="13.879877"
     inkscape:cy="11.115975"
     inkscape:document-units="px"
     inkscape:current-layer="layer1"
     showgrid="false"
     units="px"
     showguides="false"
     inkscape:window-width="1920"
     inkscape:window-height="1016"
     inkscape:window-x="0"
     inkscape:window-y="30"
     inkscape:window-maximized="1" />
  <metadata
     id="metadata5">
    <rdf:RDF>
      <cc:Work
         rdf:about="">
        <dc:format>image/svg+xml</dc:format>
        <dc:type
           rdf:resource="http://purl.org/dc/dcmitype/StillImage" />
        <dc:title />
      </cc:Work>
    </rdf:RDF>
  </metadata>
  <g
     inkscape:label="Layer 1"
     inkscape:groupmode="layer"
     id="layer1"
     transform="translate(0,-290.64998)">
    <g
       id="g23"
       transform="matrix(1.2314529,0,0,1.1642857,-0.33563641,-48.271242)">
      <g
         transform="matrix(0.07717014,-0.07717014,0.07717014,0.07717014,-0.26458334,293.82498)"
         id="g3763"
         style="fill:#000000">
        <path
           style="fill:none"
           inkscape:connector-curvature="0"
           d="M 0,0 H 24 V 24 H 0 Z m 21.02,19 c 0,1.1 -0.9,2 -2,2 h -14 c -1.1,0 -2,-0.9 -2,-2 V 5 c 0,-1.1 0.9,-2 2,-2 h 14 c 1.1,0 2,0.9 2,2 z"
           id="path3749" />
        <path
           inkscape:connector-curvature="0"
           d="M 19,3 H 5 C 3.9,3 3,3.9 3,5 v 14 c 0,1.1 0.9,2 2,2 h 14 c 1.1,0 2,-0.9 2,-2 V 5 C 21,3.9 20.1,3 19,3 Z M 7.5,18 C 6.67,18 6,17.33 6,16.5 6,15.67 6.67,15 7.5,15 8.33,15 9,15.67 9,16.5 9,17.33 8.33,18 7.5,18 Z m 0,-9 C 6.67,9 6,8.33 6,7.5 6,6.67 6.67,6 7.5,6 8.33,6 9,6.67 9,7.5 9,8.33 8.33,9 7.5,9 Z m 4.5,4.5 c -0.83,0 -1.5,-0.67 -1.5,-1.5 0,-0.83 0.67,-1.5 1.5,-1.5 0.83,0 1.5,0.67 1.5,1.5 0,0.83 -0.67,1.5 -1.5,1.5 z M 16.5,18 C 15.67,18 15,17.33 15,16.5 15,15.67 15.67,15 16.5,15 c 0.83,0 1.5,0.67 1.5,1.5 0,0.83 -0.67,1.5 -1.5,1.5 z m 0,-9 C 15.67,9 15,8.33 15,7.5 15,6.67 15.67,6 16.5,6 17.33,6 18,6.67 18,7.5 18,8.33 17.33,9 16.5,9 Z"
           id="path3751" />
      </g>
      <path
         sodipodi:nodetypes="ccaccacc"
         inkscape:connector-curvature="0"
         id="rect3767"
         d="m 3.0451286,293.67007 2.3082142,0.0108 c 0,0 0.070528,0.0697 0.072967,0.12148 0.00243,0.0516 -0.060807,0.1323 -0.060807,0.1323 h -2.320375 c 0,0 0.051507,-0.0747 0.052699,-0.12148 0.00136,-0.0531 -0.052699,-0.14311 -0.052699,-0.14311 z"
         style="stroke-width:0.2839027" />
      <path
         sodipodi:nodetypes="ccccc"
         inkscape:connector-curvature="0"
         id="rect3767-3"
         d="m 2.1474187,294.8832 h 2.3502279 l -0.2640077,0.25918 -2.3818257,0.0104 z"
         style="stroke-width:0.28751221" />
      <path
         sodipodi:nodetypes="ccccc"
         inkscape:connector-curvature="0"
         id="rect3767-6"
         d="M 2.6518411,294.35416 H 5.053839 l -0.2725,0.26458 H 2.4080056 Z"
         style="stroke-width:0.28864837" />
      <path
         sodipodi:nodetypes="ccccc"
         inkscape:connector-curvature="0"
         id="rect3767-7"
         d="m 2.3917901,293.02581 2.3648673,0.006 0.2809661,0.26458 h -2.363332 z"
         style="stroke-width:0.28796509" />
      <path
         sodipodi:nodetypes="ccccc"
         inkscape:connector-curvature="0"
         id="rect3767-5"
         d="m 1.846408,292.49667 2.4208148,0.0104 0.2250186,0.25917 -2.3788276,-0.005 z"
         style="stroke-width:0.28728661" />
    </g>
  </g>
</svg>
