<?xml version="1.0" standalone="no"?><!-- Generator: Gravit.io --><svg xmlns="http://www.w3.org/2000/svg" xmlns:xlink="http://www.w3.org/1999/xlink" style="isolation:isolate" viewBox="0 0 24 24" width="24" height="24"><defs><clipPath id="_clipPath_uJIV54kwP4wZ9UHOEcLJuAYy50Be0jdk"><rect width="24" height="24"/></clipPath></defs><g clip-path="url(#_clipPath_uJIV54kwP4wZ9UHOEcLJuAYy50Be0jdk)"><g id="Group"><path d=" M 8.205 0 L 15.796 0 C 17.012 0 18 0.988 18 2.205 L 18 9.796 C 18 11.012 17.012 12 15.796 12 L 8.205 12 C 6.988 12 6 11.012 6 9.796 L 6 2.205 C 6 0.988 6.988 0 8.205 0 Z  M 12.538 3.19 Q 11.362 3.19 10.68 3.973 Q 9.999 4.757 9.999 6.119 Q 9.999 7.521 10.656 8.285 Q 11.313 9.049 12.529 9.049 Q 13.276 9.049 14.233 8.781 L 14.233 9.508 Q 13.49 9.786 12.402 9.786 Q 10.824 9.786 9.968 8.829 Q 9.111 7.872 9.111 6.11 Q 9.111 5.006 9.523 4.176 Q 9.936 3.346 10.715 2.897 Q 11.493 2.448 12.548 2.448 Q 13.671 2.448 14.511 2.858 L 14.159 3.571 Q 13.349 3.19 12.538 3.19 Z " fill-rule="evenodd" fill="rgb(0,0,0)"/></g><g id="Group" filter="url(#TqwlpMrkJuw55UVpj5eA62L1qLyvUq1l)"><path d=" M 2.113 12.5 L 9.387 12.5 C 10.553 12.5 11.5 13.447 11.5 14.613 L 11.5 21.887 C 11.5 23.053 10.553 24 9.387 24 L 2.113 24 C 0.947 24 0 23.053 0 21.887 L 0 14.613 C 0 13.447 0.947 12.5 2.113 12.5 Z  M 1.438 15.135 C 1.438 14.474 1.974 13.938 2.635 13.938 C 3.297 13.938 3.833 14.474 3.833 15.135 C 3.833 15.797 3.297 16.333 2.635 16.333 C 1.974 16.333 1.438 15.797 1.438 15.135 Z  M 4.552 18.25 C 4.552 17.589 5.089 17.052 5.75 17.052 C 6.411 17.052 6.948 17.589 6.948 18.25 C 6.948 18.911 6.411 19.448 5.75 19.448 C 5.089 19.448 4.552 18.911 4.552 18.25 Z  M 1.438 21.365 C 1.438 20.703 1.974 20.167 2.635 20.167 C 3.297 20.167 3.833 20.703 3.833 21.365 C 3.833 22.026 3.297 22.563 2.635 22.563 C 1.974 22.563 1.438 22.026 1.438 21.365 Z  M 7.667 21.365 C 7.667 20.703 8.203 20.167 8.865 20.167 C 9.526 20.167 10.063 20.703 10.063 21.365 C 10.063 22.026 9.526 22.563 8.865 22.563 C 8.203 22.563 7.667 22.026 7.667 21.365 Z  M 7.667 15.135 C 7.667 14.474 8.203 13.938 8.865 13.938 C 9.526 13.938 10.063 14.474 10.063 15.135 C 10.063 15.797 9.526 16.333 8.865 16.333 C 8.203 16.333 7.667 15.797 7.667 15.135 Z " fill-rule="evenodd" fill="rgb(0,0,0)"/></g><defs><filter id="TqwlpMrkJuw55UVpj5eA62L1qLyvUq1l" x="-200%" y="-200%" width="400%" height="400%"><feOffset xmlns="http://www.w3.org/2000/svg" in="SourceAlpha" result="offOut" dx="0" dy="0"/><feGaussianBlur xmlns="http://www.w3.org/2000/svg" in="offOut" result="blurOut" stdDeviation="2.5"/><feComponentTransfer xmlns="http://www.w3.org/2000/svg" in="blurOut" result="opacOut"><feFuncA xmlns="http://www.w3.org/2000/svg" type="table" tableValues="0 0.5"/></feComponentTransfer><feBlend xmlns="http://www.w3.org/2000/svg" in="SourceGraphic" in2="opacOut" mode="normal"/></filter></defs><g id="Group"><path d=" M 14.613 12.5 L 21.887 12.5 C 23.053 12.5 24 13.447 24 14.613 L 24 21.887 C 24 23.053 23.053 24 21.887 24 L 14.613 24 C 13.447 24 12.5 23.053 12.5 21.887 L 12.5 14.613 C 12.5 13.447 13.447 12.5 14.613 12.5 Z  M 13.938 15.135 C 13.938 14.474 14.474 13.938 15.135 13.938 C 15.797 13.938 16.333 14.474 16.333 15.135 C 16.333 15.797 15.797 16.333 15.135 16.333 C 14.474 16.333 13.938 15.797 13.938 15.135 Z  M 17.052 18.25 C 17.052 17.589 17.589 17.052 18.25 17.052 C 18.911 17.052 19.448 17.589 19.448 18.25 C 19.448 18.911 18.911 19.448 18.25 19.448 C 17.589 19.448 17.052 18.911 17.052 18.25 Z  M 13.938 21.365 C 13.938 20.703 14.474 20.167 15.135 20.167 C 15.797 20.167 16.333 20.703 16.333 21.365 C 16.333 22.026 15.797 22.563 15.135 22.563 C 14.474 22.563 13.938 22.026 13.938 21.365 Z  M 20.167 21.365 C 20.167 20.703 20.703 20.167 21.365 20.167 C 22.026 20.167 22.563 20.703 22.563 21.365 C 22.563 22.026 22.026 22.563 21.365 22.563 C 20.703 22.563 20.167 22.026 20.167 21.365 Z  M 20.167 15.135 C 20.167 14.474 20.703 13.938 21.365 13.938 C 22.026 13.938 22.563 14.474 22.563 15.135 C 22.563 15.797 22.026 16.333 21.365 16.333 C 20.703 16.333 20.167 15.797 20.167 15.135 Z " fill-rule="evenodd" fill="rgb(0,0,0)"/></g></g></svg>